<svg xmlns="http://www.w3.org/2000/svg" width="24" height="24" viewBox="0 0 24 24" fill="none">
	<path d="M20.4988 3.50562C15.8304 -1.16854 8.16958 -1.16854 3.50125 3.50562C-1.16708 8.17978 -1.16708 15.8502 3.50125 20.5243C5.89526 22.9214 8.88778 24 12 24C15.1122 24 18.1047 22.8015 20.4988 20.5243C25.1671 15.8502 25.1671 8.17978 20.4988 3.50562ZM16.9077 15.4906C17.2668 15.8502 17.2668 16.5693 16.9077 16.9288C16.6683 17.1685 16.4289 17.1685 16.1895 17.1685C15.9501 17.1685 15.7107 17.0487 15.4713 16.9288L12 13.4532L8.52868 16.9288C8.28928 17.1685 8.04988 17.1685 7.81047 17.1685C7.57107 17.1685 7.33167 17.0487 7.09227 16.9288C6.73317 16.5693 6.73317 15.8502 7.09227 15.4906L10.5636 12.015L7.09227 8.53933C6.73317 8.17978 6.73317 7.46067 7.09227 7.10112C7.45137 6.74157 8.16958 6.74157 8.52868 7.10112L12 10.5768L15.4713 7.10112C15.8304 6.74157 16.5486 6.74157 16.9077 7.10112C17.2668 7.46067 17.2668 8.17978 16.9077 8.53933L13.4364 12.015L16.9077 15.4906Z" fill="#B5B5B5" />
</svg>
