<?xml version="1.0" encoding="utf-8"?>
<!-- Generator: Adobe Illustrator 25.0.1, SVG Export Plug-In . SVG Version: 6.00 Build 0) -->
<svg version="1.0" id="Layer_1" xmlns="http://www.w3.org/2000/svg" xmlns:xlink="http://www.w3.org/1999/xlink" x="0px" y="0px" viewBox="0 0 428 280" style="enable-background:new 0 0 428 280;" xml:space="preserve">
	<style type="text/css">
		.st0{fill:#557EBF;}
		.st1{fill:#36A852;}
		.st2{fill:#F9BC15;}
		.st3{fill:#EA4535;}
	</style>
	<g id="g17474">
		<g id="g17480" transform="translate(646.3034,236.3789)">
			<path id="path17482" class="st0" d="M-432.2-63c18.7,0,33.7-15.1,33.7-33.8l0.1-78.8c0-18.7-15.1-33.8-33.8-33.8
			c-18.6,0-33.8,15.1-33.8,33.8v78.8C-466-78.1-450.9-63-432.2-63" />
		</g>
		<g id="g17484" transform="translate(645.4803,233.1492)">
			<path id="path17486" class="st1" d="M-442.7-15.6L-442.7-15.6v35.4h22.5v-35c-3.7,0.5-7.4,0.5-11.2,0.5
			C-435.2-14.7-439-15.1-442.7-15.6" />
		</g>
		<g id="g17488" transform="translate(643.3809,235.9115)">
			<path id="path17490" class="st2" d="M-469.3-56.1c-10-10.2-16.3-22.6-16.3-39.4H-508c0,22.5,8.8,41,23,55.3l0.2-0.2
			c0,0-0.1-0.1-0.2-0.2L-469.3-56.1z" />
		</g>
		<g id="g17492" transform="translate(650.4081,238.79)">
			<path id="path17494" class="st3" d="M-380.2-98.4c0,28.2-25,55.9-56.1,55.9c-15.5,0-29.6-6.5-39.8-16.7l-0.2,0.2L-492-43.4
			c0,0,0.1,0.1,0.2,0.1c11.7,11.7,27.1,19.5,44.3,22c3.7,0.5,7.5,0.9,11.3,0.9c3.8,0,7.5,0,11.2-0.5c38.2-5.5,67.4-38.1,67.4-77.5
			L-380.2-98.4L-380.2-98.4z" />
		</g>
	</g>
</svg>
